<svg width="90" height="90" viewBox="0 0 90 90" fill="none" xmlns="http://www.w3.org/2000/svg">
<path fill-rule="evenodd" clip-rule="evenodd" d="M46.913 30.4532C46.913 29.2095 47.9401 28.3269 49.1477 28.3156C50.3674 28.3042 51.4248 29.1145 51.4248 30.4532C51.4248 31.7918 50.2223 34.0965 49.6392 34.9815C51.9049 36.1463 57.7922 38.6457 63.07 40.1251C69.6672 41.9743 77.4841 43.2103 81.2123 39.6253C86.2829 34.7495 81.8397 28.2592 77.6638 27.7803C74.0972 27.3712 71.8863 29.1965 71.2665 31.5787C70.7528 33.5529 71.8606 36.5748 75.2148 36.7265C78.4669 36.8736 78.3578 33.8127 77.214 34.2775C74.5342 35.3665 73.4545 31.3288 77.214 31.3288C81.3726 31.3288 81.6554 37.5517 77.6638 38.9256C75.1896 39.7771 68.7111 39.1725 68.5177 32.8781C68.3128 26.2144 76.8018 22.1927 83.018 27.0114C89.6507 32.153 86.0001 39.6253 84.461 41.4245C82.6388 43.5546 76.4864 45.5117 72.3513 46.827C71.3375 47.1495 70.4449 47.4335 69.7671 47.6719C67.7111 48.3953 63.3442 50.8361 59.7511 52.8444C57.2984 54.2153 55.2063 55.3847 54.4561 55.6685C56.6413 56.7558 58.8265 59.9179 59.3663 61.666C57.9781 62.7972 54.3536 64.015 49.8755 64.015C44.2779 64.015 41.0792 63.0654 39.5299 61.666C39.5798 60.8663 41.3791 57.2679 43.878 55.6685C42.2287 54.8189 37.9305 52.5698 27.285 46.2725C17.0115 40.1952 4.11659 41.0924 1.03617 41.3067C0.924622 41.3145 0.825942 41.3213 0.740723 41.3269C1.67121 39.2093 5.52148 37.5729 10.2381 37.5729C13.6284 37.5729 17.2436 38.0741 20.8563 38.5749C25.3964 39.2042 29.9326 39.833 34.0135 39.466C39.5421 38.9687 47.9665 35.527 48.7686 34.9815C48.1815 34.1104 46.913 32.0078 46.913 30.4532Z" fill="url(#paint0_linear_8_83)"/>
<defs>
<linearGradient id="paint0_linear_8_83" x1="24.8104" y1="60.1972" x2="75.9437" y2="34.8258" gradientUnits="userSpaceOnUse">
<stop stop-color="#4269B2"/>
<stop offset="0.5" stop-color="#ED3897"/>
<stop offset="1" stop-color="#FBAE17"/>
</linearGradient>
</defs>
</svg>
