<svg width="90" height="90" viewBox="0 0 90 90" fill="none" xmlns="http://www.w3.org/2000/svg">
<circle cx="45" cy="45" r="43" fill="#ED1C24"/>
<path d="M44.9299 20.8554C26.2428 28.2732 19.4188 41.7144 20.2054 49.0589C20.3968 50.8444 21.0122 52.1642 21.8545 53.0418C22.6751 53.8961 23.8836 54.514 25.6364 54.6222C29.2967 54.8478 35.2472 52.8128 43.3291 46.066L46.6706 50.0667C38.2414 57.1036 30.9778 60.174 25.3132 59.8242C22.4038 59.6443 19.9194 58.552 18.0956 56.6531C16.2945 54.7776 15.3115 52.2984 15.0238 49.6162C13.8947 39.0846 23.0673 23.9245 43.0059 16.0098L44.9299 20.8554Z" fill="white"/>
<path d="M54.093 37.3037V54.7852H63.0336V37.3037H68.2457V78.0896H63.0336V59.9973H48.8809V37.3037H54.093Z" fill="white"/>
<rect x="38.4234" y="15.0996" width="3.12812" height="43.0816" fill="white" stroke="white"/>
</svg>
