<svg width="90" height="90" viewBox="0 0 90 90" fill="none" xmlns="http://www.w3.org/2000/svg">
<path d="M45 2C21.2524 2 2 21.2533 2 44.9986C2 68.7439 21.2524 88 45 88C68.7476 88 88 68.7467 88 44.9986C88 21.2505 68.7485 2 45 2ZM70.6822 52.3885C70.747 52.5677 70.6748 52.7701 70.5053 52.8676C70.4442 52.902 70.3766 52.9177 70.3108 52.9177C70.1914 52.9177 70.0765 52.8611 70.0015 52.7627L69.9987 52.7645L63.1642 45.8435C62.6845 45.2586 61.9622 45.2957 61.5371 45.9327L56.9456 52.862L52.3577 59.7886C52.3577 59.7886 52.3577 59.7905 52.3568 59.7914L51.5715 60.9762L50.8751 59.7348L45.5436 50.2437L40.214 40.7554C39.8297 40.0711 39.1971 40.0683 38.8063 40.748L33.548 49.8983L20.0318 73.4152L20.0263 73.4124C19.9531 73.5359 19.8253 73.6093 19.6892 73.6093C19.6336 73.6093 19.579 73.5981 19.5262 73.5721C19.3382 73.4895 19.2511 73.2768 19.3169 73.0865L19.3122 73.0837L20.7625 68.7607C20.7625 68.7607 20.7643 68.7579 20.7643 68.7569L34.2454 28.5707L38.6813 15.3406L39.0221 14.3258C39.2722 13.5811 39.7389 13.5588 40.0603 14.2728L51.9327 40.5827C52.255 41.2967 52.8791 41.3524 53.3218 40.7043L53.5154 40.4202L60.3508 31.9672L60.8666 31.2105C61.3074 30.5652 61.9085 30.6292 62.2011 31.3572L62.3289 31.6756L62.3308 31.6738L70.6841 52.3857L70.6822 52.3876V52.3885Z" fill="#DB2532"/>
</svg>
