<svg width="90" height="90" viewBox="0 0 90 90" fill="none" xmlns="http://www.w3.org/2000/svg">
<path d="M66.541 53.1014C66.541 46.3353 64.57 41.0683 60.6278 37.3004C56.6856 33.5326 51.4356 31.6487 44.8779 31.6487C40.9713 31.5678 37.1042 32.4443 33.6142 34.2016C30.3942 35.8298 27.764 38.4242 26.0918 41.6217C24.2742 45.1701 23.3694 49.1156 23.4593 53.1014C23.3665 57.0451 24.2473 60.9509 26.0236 64.4731C27.7058 67.6429 30.2899 70.2428 33.4493 71.9444C36.9934 73.716 40.9168 74.5943 44.8779 74.503C51.4811 74.503 56.731 72.6077 60.6278 68.8172C64.5245 65.0266 66.4956 59.7785 66.541 53.073M88.4487 53.073C88.4941 57.8057 87.4534 62.4857 85.4067 66.7532C83.3426 70.9784 80.3304 74.6697 76.605 77.5393C72.487 80.6802 67.8212 83.0285 62.8452 84.4646C56.9965 86.1205 50.9389 86.921 44.8609 86.8413C38.8312 86.9203 32.8235 86.1001 27.0357 84.4078C22.0804 82.9494 17.4288 80.6092 13.3043 77.4995C9.60739 74.6284 6.59997 70.9663 4.50262 66.7816C2.50376 62.5011 1.49512 57.8253 1.55166 53.1014C1.49544 48.3293 2.53618 43.608 4.5936 39.3018C6.63261 35.1106 9.61398 31.4481 13.3043 28.6011C17.4121 25.4741 22.0781 23.1584 27.0527 21.778C32.844 20.1044 38.8501 19.2921 44.8779 19.3672C50.96 19.2918 57.02 20.1137 62.8623 21.8065C67.8648 23.2282 72.5555 25.5775 76.6903 28.7318C80.3878 31.5614 83.3726 35.2161 85.4067 39.4042C87.4609 43.6671 88.502 48.347 88.4487 53.0787M14.7599 4.15186H72.6761C77.7194 4.15186 81.8076 6.74461 81.8076 9.94575C81.8076 13.1469 77.7422 15.7283 72.6761 15.7283H14.7599C9.72224 15.7283 5.66254 13.1412 5.66254 9.94575C5.66254 6.75029 9.72224 4.15186 14.7599 4.15186ZM82.632 83.9529C82.626 83.5758 82.6951 83.2012 82.8353 82.851C82.9754 82.5008 83.1839 82.182 83.4485 81.9132C83.7131 81.6444 84.0285 81.4309 84.3764 81.2852C84.7243 81.1395 85.0978 81.0645 85.475 81.0645C85.8577 81.0518 86.239 81.1179 86.5951 81.2586C86.9513 81.3992 87.2748 81.6115 87.5456 81.8823C87.8163 82.1531 88.0286 82.4766 88.1693 82.8328C88.31 83.1889 88.376 83.5702 88.3634 83.9529C88.3703 84.3344 88.3004 84.7134 88.1577 85.0672C88.0151 85.4211 87.8027 85.7427 87.5332 86.0127C87.2636 86.2828 86.9425 86.4958 86.5889 86.6392C86.2353 86.7825 85.8565 86.8532 85.475 86.847C85.0944 86.8576 84.7157 86.7895 84.3626 86.6472C84.0095 86.5048 83.6896 86.2911 83.4228 86.0195C83.156 85.7479 82.9481 85.4242 82.812 85.0686C82.676 84.7131 82.6147 84.3332 82.632 83.9529ZM87.6811 83.9529C87.7022 83.6538 87.6614 83.3536 87.5611 83.071C87.4608 82.7884 87.3032 82.5296 87.0983 82.3107C86.8933 82.0919 86.6453 81.9177 86.3699 81.7992C86.0945 81.6806 85.7976 81.6202 85.4977 81.6217C84.912 81.6628 84.3636 81.9245 83.9632 82.3539C83.5628 82.7834 83.3402 83.3487 83.3402 83.9359C83.3402 84.523 83.5628 85.0883 83.9632 85.5178C84.3636 85.9473 84.912 86.2089 85.4977 86.25C85.792 86.2495 86.0832 86.1896 86.3538 86.0739C86.6245 85.9583 86.869 85.7893 87.0728 85.5769C87.2767 85.3646 87.4356 85.1134 87.5401 84.8383C87.6446 84.5631 87.6925 84.2697 87.6811 83.9757M84.3435 82.3324H85.7024C85.8423 82.3167 85.9839 82.33 86.1184 82.3715C86.253 82.4129 86.3775 82.4817 86.4842 82.5735C86.5909 82.6653 86.6776 82.7781 86.7387 82.9049C86.7999 83.0317 86.8342 83.1697 86.8396 83.3104C86.8456 83.5072 86.7917 83.7011 86.6851 83.8666C86.5785 84.0321 86.4242 84.1613 86.2426 84.2372L86.9476 85.471H86.1061L85.4807 84.3339H85.1338V85.471H84.3492L84.3435 82.3324ZM85.6171 83.7766C85.675 83.7839 85.7338 83.7788 85.7895 83.7615C85.8453 83.7442 85.8967 83.7152 85.9403 83.6765C85.9839 83.6377 86.0187 83.59 86.0424 83.5367C86.0661 83.4834 86.0781 83.4256 86.0777 83.3673C86.0777 83.0659 85.89 82.9465 85.6171 82.9465H85.1338V83.7539L85.6171 83.7766Z" fill="#62BB46"/>
</svg>
