<svg width="90" height="90" viewBox="0 0 90 90" fill="none" xmlns="http://www.w3.org/2000/svg">
<path d="M52.4805 15.7637L53.9824 17.3564L56.1328 16.9502L66.8477 14.9287L68.2363 25.7451L68.5156 27.915L70.4932 28.8506L80.3496 33.5137L75.1172 43.0801L74.0664 45L75.1172 46.9199L80.3496 56.4854L70.4932 61.1494L68.5156 62.085L68.2363 64.2559L66.8477 75.0703L56.1328 73.0498L53.9824 72.6436L52.4805 74.2363L45 82.1689L37.5195 74.2363L36.0176 72.6436L33.8672 73.0498L23.1514 75.0703L21.7637 64.2559L21.4844 62.085L19.5068 61.1494L9.64941 56.4854L14.8828 46.9199L15.9336 45L14.8828 43.0801L9.64941 33.5137L19.5068 28.8506L21.4844 27.915L21.7637 25.7451L23.1514 14.9287L33.8672 16.9502L36.0176 17.3564L37.5195 15.7637L45 7.83008L52.4805 15.7637Z" stroke="#F92626" stroke-width="8"/>
</svg>
