<svg width="300" height="300" viewBox="0 0 300 300" fill="none" xmlns="http://www.w3.org/2000/svg">
<rect width="300" height="300" fill="#B7BBDF"/>
<rect width="300" height="300" fill="url(#paint0_radial_53_2)" fill-opacity="0.7"/>
<rect width="300" height="300" fill="url(#paint1_radial_53_2)" fill-opacity="0.5"/>
<rect width="300" height="300" fill="url(#paint2_radial_53_2)" fill-opacity="0.5"/>
<path d="M178.481 41.8119C238.01 57.7626 273.337 118.952 257.386 178.481C241.435 238.009 180.247 273.337 120.718 257.386C82.0336 247.02 53.5719 217.551 42.7589 181.847C41.8729 178.922 45.6057 176.905 47.9033 178.922C57.8515 187.652 69.9065 194.29 83.5563 197.948C131.065 210.677 179.898 182.484 192.628 134.975C201.699 101.122 189.991 66.5984 165.322 44.9421C163.026 42.926 164.537 38.9606 167.552 39.4555C171.194 40.0532 174.841 40.8365 178.481 41.8119Z" fill="url(#paint3_radial_53_2)"/>
<defs>
<radialGradient id="paint0_radial_53_2" cx="0" cy="0" r="1" gradientUnits="userSpaceOnUse" gradientTransform="translate(249.569 237.931) rotate(-139.311) scale(182.474)">
<stop stop-color="white" stop-opacity="0"/>
<stop offset="1" stop-color="#B7BBDF"/>
</radialGradient>
<radialGradient id="paint1_radial_53_2" cx="0" cy="0" r="1" gradientUnits="userSpaceOnUse" gradientTransform="translate(183.621 117.672) rotate(100.448) scale(185.401 117.561)">
<stop stop-color="#48FFC2"/>
<stop offset="1" stop-color="#F5F5F5"/>
</radialGradient>
<radialGradient id="paint2_radial_53_2" cx="0" cy="0" r="1" gradientUnits="userSpaceOnUse" gradientTransform="translate(81.4655 179.741) rotate(33.5663) scale(166.052)">
<stop stop-color="#FF82E8" stop-opacity="0.4"/>
<stop offset="1" stop-color="#A8C4E2"/>
</radialGradient>
<radialGradient id="paint3_radial_53_2" cx="0" cy="0" r="1" gradientUnits="userSpaceOnUse" gradientTransform="translate(88.5974 133.254) rotate(15) scale(174.743 148.27)">
<stop offset="0.3" stop-color="#FFECB8"/>
<stop offset="1" stop-color="#FFD974"/>
</radialGradient>
</defs>
</svg>
