<svg width="90" height="90" viewBox="0 0 90 90" fill="none" xmlns="http://www.w3.org/2000/svg">
<path d="M88 44.9999C88 68.7481 68.7482 87.9999 45 87.9999C21.2518 87.9999 2 68.7481 2 44.9999C2 21.2516 21.2518 1.99988 45 1.99988C68.7482 1.99988 88 21.2516 88 44.9999Z" fill="#5078E3"/>
<path d="M41.9037 45.439C41.9036 40.057 37.5407 35.694 32.1587 35.694C26.7767 35.694 22.4138 40.057 22.4137 45.439C22.4137 50.821 26.7767 55.1839 32.1587 55.184V61.3951C23.3464 61.395 16.2026 54.2513 16.2026 45.439C16.2026 36.6267 23.3464 29.4829 32.1587 29.4829C40.971 29.4829 48.1147 36.6267 48.1148 45.439C48.1148 54.2513 40.9711 61.3951 32.1587 61.3951V55.184C37.5408 55.184 41.9037 50.821 41.9037 45.439Z" fill="white"/>
<path d="M73.9678 45.439C73.9678 36.6267 66.824 29.4829 58.0117 29.4829C49.1994 29.4829 42.0557 36.6267 42.0556 45.439C42.0556 54.2513 49.1994 61.395 58.0117 61.3951C66.8241 61.3951 73.9678 54.2513 73.9678 45.439ZM74.9234 45.439C74.9234 54.7791 67.3518 62.3506 58.0117 62.3506C48.6717 62.3506 41.1001 54.779 41.1001 45.439C41.1001 36.099 48.6717 28.5274 58.0117 28.5273C67.3518 28.5273 74.9233 36.0989 74.9234 45.439Z" fill="#5078E3"/>
<path d="M67.7567 45.439C67.7567 40.057 63.3937 35.694 58.0117 35.694C52.6297 35.694 48.2668 40.057 48.2667 45.439C48.2667 50.821 52.6297 55.1839 58.0117 55.184V61.3951C49.1994 61.395 42.0556 54.2513 42.0556 45.439C42.0557 36.6267 49.1994 29.4829 58.0117 29.4829C66.824 29.4829 73.9678 36.6267 73.9678 45.439C73.9678 54.2513 66.8241 61.3951 58.0117 61.3951V55.184C63.3938 55.184 67.7567 50.821 67.7567 45.439Z" fill="white"/>
<path d="M48.1148 45.439C48.1147 36.6267 40.971 29.4829 32.1587 29.4829C23.3464 29.4829 16.2026 36.6267 16.2026 45.439C16.2026 54.2513 23.3464 61.395 32.1587 61.3951C40.9711 61.3951 48.1148 54.2513 48.1148 45.439ZM49.0703 45.439C49.0703 54.7791 41.4988 62.3506 32.1587 62.3506C22.8186 62.3506 15.247 54.779 15.247 45.439C15.2471 36.099 22.8187 28.5274 32.1587 28.5273C41.4988 28.5273 49.0703 36.0989 49.0703 45.439Z" fill="#5078E3"/>
</svg>
